<svg width="43" height="43" viewBox="0 0 43 43" fill="none" xmlns="http://www.w3.org/2000/svg">
<g clip-path="url(#clip0_929_3)">
<path fill-rule="evenodd" clip-rule="evenodd" d="M21.5065 0C33.3756 0 43.0129 9.62436 43.0129 21.5065C43.0129 33.3756 33.3885 43.0129 21.5065 43.0129C9.63726 43.0129 0 33.3885 0 21.5065C0 9.63726 9.62436 0 21.5065 0ZM18.7327 17.2361H23.1449V19.4938H23.2094C23.8287 18.3843 25.3252 17.2361 27.5701 17.2361C32.2274 17.2361 33.0918 20.1389 33.0918 23.9061V31.5953H28.486V24.7834C28.486 23.1578 28.4473 21.0678 26.0864 21.0678C23.6868 21.0678 23.3255 22.8353 23.3255 24.6673V31.5953H18.7198V17.2361H18.7327ZM15.5461 13.2496C15.5461 14.5656 14.4752 15.6493 13.1464 15.6493C11.8305 15.6493 10.7468 14.5785 10.7468 13.2496C10.7468 11.9337 11.8176 10.85 13.1464 10.85C14.4623 10.85 15.5461 11.9208 15.5461 13.2496ZM10.7597 17.2361H15.5461V31.5953H10.7597V17.2361Z" fill="white"/>
</g>
<defs>
<clipPath id="clip0_929_3">
<rect width="43" height="43" fill="white"/>
</clipPath>
</defs>
</svg>
