<svg width="42" height="42" viewBox="0 0 42 42" fill="none" xmlns="http://www.w3.org/2000/svg">
<path fill-rule="evenodd" clip-rule="evenodd" d="M21 0C9.40202 0 0 9.40202 0 21C0 32.598 9.40202 42 21 42C32.598 42 42 32.598 42 21C42 9.40202 32.598 0 21 0ZM11.5875 28.4125C11.9792 28.8042 12.45 29 13 29H29C29.55 29 30.0208 28.8042 30.4125 28.4125C30.8042 28.0208 31 27.55 31 27V15C31 14.45 30.8042 13.9792 30.4125 13.5875C30.0208 13.1958 29.55 13 29 13H13C12.45 13 11.9792 13.1958 11.5875 13.5875C11.1958 13.9792 11 14.45 11 15V27C11 27.55 11.1958 28.0208 11.5875 28.4125ZM13 17L21 22L29 17V27H13V17ZM29 15L21 20L13 15H29Z" fill="white"/>
</svg>
